<svg xmlns="http://www.w3.org/2000/svg" viewBox="0 0 260.4 44.28"><title>Condor logo</title><path d="M538.7,500.65a15.71,15.71,0,0,0-16,15.22V517a16.05,16.05,0,0,0,32.1-.55A15.83,15.83,0,0,0,538.7,500.65Zm0,24.9c-4.7,0-6.09-4.7-6.09-8.58s1.38-8.58,6.09-8.58,6.09,4.7,6.09,8.58S543.41,525.56,538.7,525.56Z" transform="translate(-381.8 -489.86)"/><path d="M472.29,500.65a11.6,11.6,0,0,0-9.68,5.26h0v-4.43h-9.68v31h10V515.59c0-3.32,1.66-6.64,5.53-6.64,5.53,0,5,4.43,5,8.58v14.94h10V512.55C483.36,508.12,482.53,500.65,472.29,500.65Z" transform="translate(-381.8 -489.86)"/><path d="M399,525.28h0c-4.7,0-6.36-4.43-6.36-8.58,0-4.43.83-9.41,6.64-9.41a4.73,4.73,0,0,1,5,4.7h10c-.83-8.58-7.75-12.73-15.77-12.73-10.24,0-16.6,7.47-16.6,17.71A16,16,0,0,0,397,533.58h1.38c8.58,0,14.94-5,16-13.56h-9.68A5.57,5.57,0,0,1,399,525.28Z" transform="translate(-381.8 -489.86)"/><path d="M508.82,504.8h0a10.16,10.16,0,0,0-8.85-4.15c-8.58,0-12.73,7.75-12.73,15.77,0,8.58,4.15,17.16,13.56,17.16a9.76,9.76,0,0,0,8.3-4.43h0v3.6h9.41V490.14h-10V504.8Zm-5.53,20.75c-4.7,0-6.09-4.7-6.09-8.85,0-3.87,1.66-8.3,6.09-8.3h0c4.43,0,5.81,4.15,5.81,8.58C509.1,520.85,508.27,525.56,503.28,525.56Z" transform="translate(-381.8 -489.86)"/><path d="M568.59,507h0v-5.53H558.9v31h10V517.25a7.09,7.09,0,0,1,6.64-7.47h.83a18.69,18.69,0,0,1,3.87.55v-9.13a7.66,7.66,0,0,0-2.49-.28A9.21,9.21,0,0,0,568.59,507Z" transform="translate(-381.8 -489.86)"/><path d="M433,500.65a15.71,15.71,0,0,0-16,15.22V517a16.05,16.05,0,1,0,32.1-.55A15.83,15.83,0,0,0,433,500.65Zm0,24.9c-4.7,0-6.09-4.7-6.09-8.58s1.38-8.58,6.09-8.58,6.09,4.7,6.09,8.58S437.7,525.56,433,525.56Z" transform="translate(-381.8 -489.86)"/><path d="M620.06,489.86h-.55A21.73,21.73,0,0,0,597.92,512v.55a21.73,21.73,0,0,0,22.14,21.58h.55A21.56,21.56,0,0,0,642.19,512v-.55A22.28,22.28,0,0,0,620.06,489.86Zm0,42.34h-.55A20,20,0,0,1,599.86,512h0v-.55a19.67,19.67,0,0,1,20.2-19.65h.55A19.84,19.84,0,0,1,640.26,512v.55A20.2,20.2,0,0,1,620.06,532.2Z" transform="translate(-381.8 -489.86)"/><path d="M615.35,506.74c-1.11,2.49,2.49,5.53,2.49,5.53l-6.92-4.43,2.21-.55v-1.94H602.62l30.44,19.92v-3l-2.77-1.66c-6.09-4.15-12.45-10.52-11.9-12.18a1,1,0,0,1,.83-.28H630l-5.81,5.53,1.38,1.38,11.62-9.13H617.84A1.9,1.9,0,0,0,615.35,506.74Z" transform="translate(-381.8 -489.86)"/></svg>