<svg xmlns="http://www.w3.org/2000/svg" height="800" width="1200" version="1.0" viewBox="-68.12175 -33.106 590.3885 198.636"><defs><clipPath id="b"><path d="M0 141.732h141.732V0H0z"/></clipPath><clipPath id="a"><path d="M0 141.732h141.732V0H0z"/></clipPath></defs><g clip-path="url(#a)" transform="matrix(2.55 0 0 -2.8875 111.424 271.113)" fill="#004846"><path d="M120.278 60.074l-1.125-2.418h4.437l1.126 2.418zm-1.667-3.596l-3.842-8.252h4.437l3.026 6.508.815 1.744zm15.004.196c-.077.012-.18.012-.309.012a6.39 6.39 0 01-2.212-.375 7.382 7.382 0 01-2.019-1.176c.117.246.221.49.298.71.078.22.13.427.142.622h-4.41a3.981 3.981 0 00-.156-.582 7.406 7.406 0 00-.336-.803l-2.38-5.123-.816-1.746h4.424l1.488 3.195c.44.957.97 1.618 1.59 1.993.623.375 1.475.568 2.575.568.155 0 .323 0 .505-.014.18-.01.362-.025.555-.037l1.268 2.742c-.063.014-.13.014-.207.014m-28.806-3.727l2.276 2.25 2.07 2.06.195-4.31zm8.459 7.115h-5.11l-1.073-.998-11.577-10.838h4.617l2.11 2.135h7.153l.052-2.135h5.135zm-23.141-4.347c-.453.646-1.398.959-2.834.959a7.145 7.145 0 01-2.315-.377c-.75-.244-1.525-.633-2.328-1.15.169.336.273.609.349.814.077.22.116.389.116.518h-4.423a6.357 6.357 0 00-.168-.608 6.88 6.88 0 00-.311-.775l-2.911-6.262-.284-.607h4.412l1.899 4.074c.363.775.817 1.357 1.346 1.746.531.389 1.165.568 1.877.568.608 0 .982-.14 1.138-.425.142-.286.078-.75-.22-1.385l-2.135-4.578h4.425l2.185 4.709c.57 1.215.635 2.146.182 2.779m-19.959-4.049c-.284-.607-.686-1.059-1.203-1.357a3.072 3.072 0 00-.878-.35 4.034 4.034 0 00-1.011-.104c-.452 0-.775.079-.957.221-.18.154-.206.375-.09.647.195.4.582.672 1.177.841.233.063.53.116.881.141.556.065 1.281.092 2.146.092zm5.134 3.895c-.09.128-.205.234-.348.335-.712.518-2.031.778-3.984.778a21.46 21.46 0 01-2.883-.182c-.739-.117-1.386-.271-1.941-.492-1.204-.439-2.032-1.125-2.472-2.031h4.088c.105.142.195.26.325.377.142.129.31.218.503.308.349.143.803.221 1.333.221.596 0 .996-.104 1.189-.311.195-.207.195-.529 0-.943-.011-.027-.025-.066-.051-.103-.027-.053-.052-.079-.052-.092a46.056 46.056 0 01-2.922-.117c-1.554-.104-2.821-.311-3.777-.606-1.476-.467-2.459-1.217-2.95-2.266 0-.011 0-.011-.013-.025-.259-.582-.259-1.074 0-1.463.077-.103.181-.193.298-.283.53-.428 1.487-.635 2.845-.635.971 0 1.837.117 2.613.35.349.105.672.234.984.375a7.3 7.3 0 011.137.685c-.104-.22-.167-.425-.233-.621-.052-.205-.09-.4-.09-.593H73c0 .128.026.285.065.439.051.168.13.375.259.646l1.952 4.206c.014.011.014.025.026.037.376.841.376 1.513 0 2.006m-13.955.025a.563.563 0 01-.116.182c-.466.607-1.423.906-2.872.906a7.283 7.283 0 01-2.328-.39c-.764-.245-1.527-.634-2.29-1.137l2.29 4.916h-4.438L46.368 48.82l-.285-.607h.285l4.152.014 1.9 4.074c.364.775.816 1.357 1.334 1.746.53.375 1.152.568 1.863.568.594 0 .969-.14 1.125-.414.168-.283.116-.711-.142-1.28l-2.2-4.694h4.45l2.277 4.888c.092.194.168.389.22.57.284.776.284 1.41 0 1.9m-33.27 4.478l-6.856-7.335-.13 7.334h-7.67l-5.51-11.85h4.437l4.436 9.547.336-9.546h3.52l9.066 9.547-4.437-9.547h4.424l4.011 8.629 1.5 3.22zm13.167-8.397c-.284-.607-.685-1.059-1.202-1.357a3.152 3.152 0 00-.894-.35 4.17 4.17 0 00-1.02-.104c-.453 0-.777.067-.958.221-.18.154-.206.375-.076.633.18.402.567.686 1.163.855.233.051.53.102.891.141.571.065 1.282.092 2.15.092zm5.123 3.895a1.91 1.91 0 01-.337.335c-.71.518-2.043.778-3.997.778a19.54 19.54 0 01-2.885-.195A9.461 9.461 0 0137.195 56c-1.202-.439-2.016-1.125-2.47-2.045h4.101c.09.145.195.274.322.391.157.115.312.218.506.308.362.143.803.221 1.346.221.581 0 .981-.104 1.177-.311.194-.207.205-.529 0-.957a.336.336 0 00-.053-.089c-.026-.053-.037-.079-.052-.092a46.247 46.247 0 01-2.924-.117c-1.564-.116-2.832-.323-3.775-.622-.66-.193-1.216-.451-1.669-.773-.583-.402-1.023-.894-1.294-1.477-.349-.761-.259-1.357.284-1.771.247-.195.583-.35 1.01-.453.491-.117 1.111-.182 1.85-.182.957 0 1.824.117 2.6.35.348.105.685.234.994.375.404.193.79.414 1.154.685a3.578 3.578 0 01-.235-.621 2.508 2.508 0 01-.104-.607h4.115a1.36 1.36 0 00.052.453c.052.168.141.375.26.635l1.951 4.203c.013.025.013.039.026.051.376.841.376 1.513 0 2.006" fill-rule="evenodd"/></g><g fill="#004846" fill-rule="evenodd"><path d="M451.462 27.3c.333-.633.723-1.203 1.095-1.109 1.133 0 1.712 1.852 1.565 3.96-.328 2.027-1.41 3.967-2.816 4.526-1.153.457-2.287.457-3.288-.011-3.639-2.868-4.5 4.557-7.976 8.873-1.386 3.127-2.876 6.427-4.738 9.051-.878 1.22-1.85 2.158-2.924 2.309-2.415.972-5.414 2.096-8.52 2.782-.863.257-.952-1.061-.274-1.322.712-.257 1.117-.41 1.65-.76 3.592-2.35 7.406-4.912 10.276-8.26.33-.384.517-.78.53-1.312.014-.61-.21-.56-.47-.507-.664.135-5.838.153-5.722-3.112.642-3.352 3.235-10.08 6.441-9.913 1.127.059 2.05.791 2.857 1.993 1.52 2.263.491 3.158 1.385 3.158s2.593-4.95 3.8-7.495c.98-2.07 2.663-3.544 4.553-2.488 1.434.802 1.286 2.085 2.576-.364zm-5.07 32.55c-.358 1.288-.805 2.577-.805 3.865-.243 2.08 2.7.77 2.668 4.51-.032 3.477-4.036 4.432-4.525.491-.375-3.025 1.489-7.654 2.662-8.866zm-25.445-36.044c-.556 6.668-1.4 13.363-2.451 18.979-1.335 5.002-3.075 8.498-5.006 11.36-.658.996-1.985 1.517-.894-1.555 1.823-4.407 2.384-9.98 3.129-15.65.056-2.395.072-4.02 1.071-6.23l2.911-7.644c.652-1.5 1.363-.726 1.24.74zm-8.975.123c.477-.77 1.147-.565 1.207.188-.552 2.53-1.952 4.76-3.934 6.788a5.72 5.72 0 01-.598.63c-.719.63-1.525.443-2.295-.01-1.782-1.05-2.647-.506-5.733 2.114-1.727 1.32-2.204 2.695-1.788 4.267l2.413 3.347c.862.88.627 1.76-.357 2.64l-2.682 2.852c-.699.828-1.075.647-2.37-.165-1.294-.813-3.039-2.452-4.827-2.075-1.201.038-9.378 7.224-20.931 12.207-20.262 8.738-45.448 12.312-56.807 6.364-5.405-2.83-8.037-8.364-7.206-17.274l1.862-19.944c.219-2.348.654-4.251 1.39-6.475.846-2.554 2.08-4.874 2.44-5.542.305-.567-3.742 29.698-1.34 33.092 3.174 10.248 25.52 10.646 45.221 6.974 13.336-2.485 26-9.065 32.955-13.072 3.289-1.894 4.99-2.707 5.5-3.141 2.21-1.88 4.99-7.323 8.107-9.971 1.764-1.5 4.122-2.107 5.079-1.673 3.224 1.46 4.098-.704 4.694-2.121zm-120.288-5.516c.54-1.165.827-2.114 2.28.047 1.377 1.536 2.558 4.922 2.306 8.865-.245 3.856-1.605 7.92-3.157 11.455-2.708 6.166-2.236 6.983-1.477 7.358 3.117 1.54 4.153 3.513 3.976 7.419a21.854 21.854 0 01-.576 4.124c-3.928 15.92-12.166 22.035-20.383 22.062-18.77-3.353-6.775-30.69-1.503-40.305 1.044-1.903 1.81-.42.699 2.027-6.93 14.525-9.347 25.24.268 28.048 6.847.987 12.058-1.084 16.986-6.364 1.434-2.783 2.39-5.33 0-6.222-3.542-1.474-5.888-3.682-4.292-7.92 1.597-4.238 5.603-12.727 5.499-14.99 0-2.263-2.638-6.694-2.638-6.694-.364-.896-.468-1.87 0-3.017.656-1.949 1.356-3.944 2.012-5.893zM289.055 5.83s-2.681-.33-2.413 1.319c.268 1.649 2.145 1.006 3.127.66.983-.345 1.258.158.693 1.32-.439.644-.905 1.002-1.656 1.38-.468.323-1.644 1.013-2.584 1.972-.95.968-1.7 2.005-2.152 2.559-.331.406-.407.42-.894.4-1.078-.044-.634-1.553.264-2.815.818-1.149 1.835-1.753 1.861-1.87.176-.791-1.333-.951-.715-2.569.618-1.617 1.504-3.538 3.039-3.864 1.534-.326 2.108 1.355 1.43 1.508zm-39.101 12.624c-.544 4.085-2.153 16.5-2.456 20.269-.367 4.55.318 9.142 2.502 9.613 2.185.471 1.787-.817 2.502-3.299.716-2.482 2.86-1.005 3.04 3.299-1.595 13.35-12.619 12.63-11.663-.566l2.055-20.64c.409-3.013 2.104-5.78 3.034-8.945.16-.543 1.296-2.056.986.27zm-14.942-9.362c-.874 2.9-3.329 10.308-1.821 14.3.567 1.499 1.833 2.266 3.965 2.645.987.175 1.424-.808 1.47.64.025.725-.218 1.613-.42 2.15-1.962 5.192-8.559 12.257-7.15 17.389.607 2.208 1.788 2.145 2.592-.613.804-2.759 3.515 2.073 2.324 5.56-1.192 3.488-3.492 7.41-7.15 6.692-3.658-.717-4.07-6.414-2.1-11.074 1.427-3.374 4.223-7.926 5.382-9.853.31-.515.334-1.037.204-1.08-9.442-2.609-.392-24.076 1.94-27.867.811-1.32 1.507-1.355.764 1.111zM217.65 35.141c.834-2.419 1.31-2.042 1.162.566-.67 7.493-1.524 13.72-2.86 20.829-1.336 7.108-11.297 23.854-23.682 23.185-12.386-.67-13.333-14.435-8.848-25.165 2.103-5.029 3.566-7.724 4.364-9.267 1.163-2.25 2.624-1.822 1.757-.263-4.39 7.901-9.875 24.056 3.71 24.893 9.82.605 18.128-6.465 20.018-13.29 1.89-6.823.403-12.371 1.072-12.628-.747.788 2.59-8.67 3.307-8.86zM381.163 68.89c.302-.787.969-1.496 2.156-.518 2.192 2.248 4.2 3.81 2.634 7.493-1.36 3.194-2.346 4.51-3.429 4.479-1.049-.03-2.188-1.333-3.845-3.065-.949-.84-.767-1.728-.326-2.827zm19.159-4.533c.368-.755 1.009-1.452 2.106-.365l2.184 2.577s1.17 1.088.903 3.138c-.13.369.107.351.396.279l3.169-5.629c.368-.755 1.009-1.452 2.106-.365l2.184 2.577s.834.91.942 2.624c.199 3.151-3.619 8.206-5.337 5.943-1.776-1.694-3.438-4.649-3.974-3.341-.302.738-2.907 5.577-4.784 3.341l-2.603-2.773c-.804-.64-.983-1.547-.628-2.08zm-10.095 3.969c.302-.788.969-1.497 2.156-.519 2.192 2.248 4.2 3.81 2.633 7.493-1.359 3.193-2.345 4.51-3.428 4.479-1.049-.03-2.189-1.333-3.845-3.065-.949-.84-.767-1.728-.326-2.828z"/><path d="M404.248 76.049c.302-.789.968-1.497 2.155-.519 2.193 2.248 4.202 3.81 2.635 7.493-1.36 3.193-2.346 4.51-3.429 4.479-1.05-.03-2.189-1.333-3.845-3.065-.949-.84-.767-1.728-.327-2.828zM199.882 43.427c.302-.788.969-1.496 2.156-.518 2.192 2.247 4.201 3.81 2.634 7.492-1.36 3.194-2.346 4.51-3.428 4.48-1.05-.031-2.19-1.333-3.846-3.066-.948-.84-.767-1.727-.326-2.827z"/></g><g clip-path="url(#b)" transform="matrix(8.625 0 0 -8.625 -505.967 740.874)" fill="#004846" fill-rule="evenodd"><path d="M62.466 80.358l.454 1.928c.135.407.47.67.98.654l1.563-.039c.566-.016.9-.662.766-1.3l-.113-.748c-.11-.798-.596-1.37-1.41-1.73-3.332-1.149-5.627-2.67-5.276-5.238.35-2.573 4.248-2.876 6.44.2l5.084 7.135c1.897 2.661 4.766 3.872 8.122 4.262l4.51.416c-.748-2.472-2.343-4.185-4.797-4.64-4.264-.78-7.394-1.642-9.11-3.602l-1.634-1.89-2.463-3.076c-1.106-1.378-2.711-1.88-4.51-1.553-1.586.358-2.511 1.402-2.4 3.608.11 2.21 1.683 4.648 3.794 5.613"/><path d="M64.583 71.169c.894.732 1.188.78 2.312 2.478 1.123 1.697 3.506 4.209 4.98 5.086 1.476.876 2.877 1.17 4.487 1.489l2.367.479c-.358-2.327-2.143-3.514-4.624-3.801-2.47-.295-4.381-.83-5.6-2.241l-2.097-2.407a3.219 3.219 0 00-1.825-1.083"/><path d="M68.459 70.869c-1.42.367-1.5 2.167.334 3.372 1.824 1.21 4.304 1.195 5.234-.679-1.17.432-1.88.661-2.508-.541-.63-1.204-1.651-2.518-3.06-2.152"/></g></svg>