<?xml version="1.0" encoding="UTF-8" standalone="no"?>
<!-- Created with Inkscape (http://www.inkscape.org/) -->

<svg
   version="1.1"
   id="svg2"
   xml:space="preserve"
   width="607.74664"
   height="475.06668"
   viewBox="0 0 607.74664 475.06668"
   sodipodi:docname="Qatar-Airways-logo.eps"
   xmlns:inkscape="http://www.inkscape.org/namespaces/inkscape"
   xmlns:sodipodi="http://sodipodi.sourceforge.net/DTD/sodipodi-0.dtd"
   xmlns="http://www.w3.org/2000/svg"
   xmlns:svg="http://www.w3.org/2000/svg"><defs
     id="defs6" /><sodipodi:namedview
     id="namedview4"
     pagecolor="#ffffff"
     bordercolor="#666666"
     borderopacity="1.0"
     inkscape:pageshadow="2"
     inkscape:pageopacity="0.0"
     inkscape:pagecheckerboard="0" /><g
     id="g8"
     inkscape:groupmode="layer"
     inkscape:label="ink_ext_XXXXXX"
     transform="matrix(1.3333333,0,0,-1.3333333,0,475.06667)"><g
       id="g10"
       transform="scale(0.1)"><path
         d="m 1380.44,65.582 c -12.52,0 -24.73,2.0469 -36.63,6.1485 -11.91,4.1015 -22.17,10.0586 -30.79,17.8593 l 9.55,14.1522 c 9.03,-7.3826 18.21,-12.9217 27.55,-16.6209 9.34,-3.6914 19.34,-5.5391 30.01,-5.5391 12.93,0 23.25,2.6172 30.94,7.8477 7.7,5.2422 11.55,12.6723 11.55,22.3203 0,4.512 -1.03,8.262 -3.08,11.238 -2.06,2.973 -5.08,5.59 -9.08,7.844 -4.01,2.258 -9.04,4.258 -15.09,6.008 -6.05,1.738 -13.08,3.539 -21.08,5.39 -9.24,2.258 -17.24,4.508 -24.02,6.77 -6.77,2.262 -12.36,4.82 -16.77,7.691 -4.42,2.879 -7.7,6.418 -9.86,10.629 -2.15,4.2 -3.23,9.489 -3.23,15.852 0,8 1.59,15.09 4.77,21.238 3.18,6.16 7.49,11.238 12.93,15.238 5.44,4 11.8,7.032 19.09,9.082 7.28,2.051 15.03,3.079 23.24,3.079 12.32,0 23.5,-2 33.56,-6 10.05,-4 18.16,-9.289 24.32,-15.848 l -10.16,-12.32 c -5.96,6.16 -13.19,10.769 -21.71,13.847 -8.52,3.082 -17.39,4.621 -26.62,4.621 -5.54,0 -10.68,-0.57 -15.4,-1.687 -4.72,-1.133 -8.88,-2.934 -12.46,-5.391 -3.6,-2.461 -6.42,-5.59 -8.47,-9.39 -2.05,-3.801 -3.08,-8.262 -3.08,-13.391 0,-4.309 0.72,-7.801 2.16,-10.469 1.43,-2.672 3.79,-4.98 7.08,-6.922 3.28,-1.961 7.43,-3.699 12.46,-5.23 5.03,-1.547 11.14,-3.141 18.32,-4.777 10.26,-2.461 19.29,-4.922 27.09,-7.391 7.8,-2.461 14.32,-5.34 19.55,-8.621 5.23,-3.281 9.18,-7.289 11.85,-12.008 2.67,-4.711 4,-10.461 4,-17.23 0,-14.7817 -5.64,-26.4809 -16.93,-35.102 -11.29,-8.6211 -26.47,-12.918 -45.56,-12.918"
         style="fill:#ffffff;fill-opacity:1;fill-rule:nonzero;stroke:none"
         id="path12" /><path
         d="m 1605.48,157.309 c -0.62,8.621 -2.62,16.472 -6.01,23.562 -3.38,7.07 -7.69,13.18 -12.93,18.309 -5.23,5.129 -11.28,9.129 -18.16,12.011 -6.88,2.868 -14.21,4.309 -22.01,4.309 -7.8,0 -15.19,-1.441 -22.16,-4.309 -6.98,-2.882 -13.09,-6.882 -18.32,-12.011 -5.23,-5.129 -9.44,-11.289 -12.62,-18.469 -3.19,-7.191 -5.08,-14.981 -5.7,-23.402 z m -59.11,-91.727 c -11.7,0 -22.42,2.1993 -32.17,6.6094 -9.75,4.4102 -18.22,10.4688 -25.4,18.168 -7.18,7.6914 -12.77,16.5706 -16.78,26.6206 -4,10.059 -6,20.829 -6,32.329 0,11.281 2,21.902 6,31.863 4.01,9.949 9.55,18.668 16.63,26.168 7.08,7.488 15.54,13.441 25.4,17.859 9.85,4.403 20.52,6.61 32.01,6.61 11.7,0 22.42,-2.207 32.17,-6.61 9.75,-4.418 18.11,-10.418 25.09,-18.019 6.98,-7.59 12.42,-16.309 16.32,-26.16 3.89,-9.86 5.85,-20.321 5.85,-31.399 0,-1.652 0,-3.293 0,-4.93 0,-1.64 -0.11,-2.769 -0.31,-3.39 h -137.3 c 0.62,-8.61 2.62,-16.571 6,-23.852 3.39,-7.289 7.75,-13.597 13.09,-18.9373 5.33,-5.3398 11.44,-9.4922 18.31,-12.4609 6.88,-2.9805 14.21,-4.4688 22.01,-4.4688 5.13,0 10.26,0.7188 15.4,2.1602 5.12,1.4297 9.85,3.3789 14.16,5.8476 4.31,2.461 8.2,5.4805 11.7,9.0821 3.48,3.5901 6.15,7.5391 8,11.8481 l 18.16,-4.93 c -2.46,-5.9494 -5.95,-11.34 -10.46,-16.1603 -4.52,-4.8203 -9.75,-9.0313 -15.7,-12.6211 -5.96,-3.5898 -12.53,-6.3594 -19.71,-8.3086 -7.18,-1.9492 -14.67,-2.918 -22.47,-2.918"
         style="fill:#ffffff;fill-opacity:1;fill-rule:nonzero;stroke:none"
         id="path14" /><path
         d="m 1786.18,157.309 c -0.61,8.621 -2.61,16.472 -6,23.562 -3.38,7.07 -7.69,13.18 -12.93,18.309 -5.23,5.129 -11.29,9.129 -18.16,12.011 -6.88,2.868 -14.21,4.309 -22.01,4.309 -7.8,0 -15.19,-1.441 -22.17,-4.309 -6.98,-2.882 -13.08,-6.882 -18.32,-12.011 -5.23,-5.129 -9.44,-11.289 -12.62,-18.469 -3.18,-7.191 -5.08,-14.981 -5.69,-23.402 z m -59.1,-91.727 c -11.7,0 -22.43,2.1993 -32.17,6.6094 -9.75,4.4102 -18.22,10.4688 -25.4,18.168 -7.19,7.6914 -12.78,16.5706 -16.78,26.6206 -4,10.059 -6,20.829 -6,32.329 0,11.281 2,21.902 6,31.863 4,9.949 9.55,18.668 16.62,26.168 7.09,7.488 15.55,13.441 25.4,17.859 9.85,4.403 20.52,6.61 32.02,6.61 11.7,0 22.42,-2.207 32.17,-6.61 9.75,-4.418 18.11,-10.418 25.09,-18.019 6.97,-7.59 12.42,-16.309 16.32,-26.16 3.89,-9.86 5.84,-20.321 5.84,-31.399 0,-1.652 0,-3.293 0,-4.93 0,-1.64 -0.1,-2.769 -0.3,-3.39 h -137.3 c 0.61,-8.61 2.61,-16.571 6,-23.852 3.38,-7.289 7.74,-13.597 13.08,-18.9373 5.34,-5.3398 11.44,-9.4922 18.32,-12.4609 6.87,-2.9805 14.21,-4.4688 22.01,-4.4688 5.13,0 10.26,0.7188 15.39,2.1602 5.13,1.4297 9.85,3.3789 14.16,5.8476 4.31,2.461 8.21,5.4805 11.7,9.0821 3.49,3.5901 6.16,7.5391 8.01,11.8481 l 18.16,-4.93 c -2.46,-5.9494 -5.96,-11.34 -10.47,-16.1603 -4.51,-4.8203 -9.75,-9.0313 -15.7,-12.6211 -5.95,-3.5898 -12.52,-6.3594 -19.7,-8.3086 -7.19,-1.9492 -14.67,-2.918 -22.47,-2.918"
         style="fill:#ffffff;fill-opacity:1;fill-rule:nonzero;stroke:none"
         id="path16" /><path
         d="m 1953.03,68.6484 -59.1,82.2036 -34.48,-32.024 V 68.6484 h -20.94 V 293.379 h 20.94 V 140.691 l 90.2,88.039 h 23.7 l -65.57,-65.57 68.03,-94.5116 h -22.78"
         style="fill:#ffffff;fill-opacity:1;fill-rule:nonzero;stroke:none"
         id="path18" /><path
         d="m 2002.6,293.379 h 20.93 V 104.98 c 0,-5.9605 1.64,-10.6206 4.93,-14.0112 3.28,-3.379 7.9,-5.0782 13.85,-5.0782 2.26,0 4.92,0.3086 8,0.9297 3.08,0.6094 5.95,1.4297 8.62,2.461 l 3.69,-16.9297 c -3.89,-1.6524 -8.67,-2.9805 -14.31,-4 -5.64,-1.0313 -10.52,-1.543 -14.62,-1.543 -9.65,0 -17.24,2.7109 -22.78,8.1602 -5.54,5.4296 -8.31,13.082 -8.31,22.9296 V 293.379"
         style="fill:#ffffff;fill-opacity:1;fill-rule:nonzero;stroke:none"
         id="path20" /><path
         d="m 2095.57,148.07 c 0,-9.031 1.53,-17.379 4.61,-25.082 3.08,-7.699 7.24,-14.468 12.47,-20.316 5.24,-5.8517 11.39,-10.422 18.47,-13.7032 7.08,-3.2774 14.63,-4.9297 22.63,-4.9297 8,0 15.54,1.6992 22.62,5.082 7.09,3.3906 13.29,8.0078 18.63,13.8589 5.33,5.848 9.54,12.668 12.62,20.469 3.08,7.801 4.62,16.211 4.62,25.242 0,8.821 -1.54,17.188 -4.62,25.09 -3.08,7.899 -7.29,14.778 -12.62,20.629 -5.34,5.852 -11.54,10.469 -18.63,13.852 -7.08,3.386 -14.62,5.078 -22.62,5.078 -8,0 -15.5,-1.692 -22.47,-5.078 -6.99,-3.383 -13.14,-8.051 -18.48,-14.012 -5.33,-5.949 -9.54,-12.879 -12.62,-20.77 -3.08,-7.91 -4.61,-16.371 -4.61,-25.41 z m 58.18,-82.488 c -11.7,0 -22.37,2.1993 -32.02,6.6094 -9.64,4.4102 -18.01,10.4102 -25.09,18.0078 -7.08,7.5899 -12.57,16.4218 -16.47,26.4808 -3.9,10.05 -5.84,20.621 -5.84,31.711 0,11.281 2,21.961 6,32.007 4,10.051 9.54,18.883 16.62,26.481 7.08,7.582 15.44,13.641 25.09,18.16 9.64,4.512 20.21,6.77 31.71,6.77 11.49,0 22.11,-2.258 31.86,-6.77 9.75,-4.519 18.16,-10.578 25.24,-18.16 7.09,-7.598 12.62,-16.43 16.63,-26.481 4,-10.046 6,-20.726 6,-32.007 0,-11.09 -1.95,-21.661 -5.85,-31.711 -3.9,-10.059 -9.39,-18.8909 -16.47,-26.4808 -7.08,-7.5976 -15.5,-13.5976 -25.24,-18.0078 -9.75,-4.4101 -20.47,-6.6094 -32.17,-6.6094"
         style="fill:#ffffff;fill-opacity:1;fill-rule:nonzero;stroke:none"
         id="path22" /><path
         d="m 2338.76,84.0391 c 6.16,0 12.21,1.1328 18.16,3.3906 5.95,2.2617 11.34,5.2812 16.17,9.082 4.82,3.7973 8.87,8.0473 12.15,12.7773 3.29,4.723 5.44,9.539 6.47,14.473 v 49.558 c -2.26,5.75 -5.34,11.078 -9.24,16.012 -3.9,4.918 -8.31,9.129 -13.23,12.617 -4.93,3.492 -10.21,6.262 -15.86,8.313 -5.64,2.047 -11.34,3.078 -17.08,3.078 -9.03,0 -17.09,-1.899 -24.16,-5.699 -7.09,-3.801 -13.09,-8.77 -18.02,-14.922 -4.93,-6.16 -8.67,-13.137 -11.23,-20.938 -2.57,-7.801 -3.85,-15.703 -3.85,-23.711 0,-8.621 1.53,-16.82 4.62,-24.621 3.07,-7.801 7.34,-14.621 12.77,-20.469 5.44,-5.8511 11.75,-10.4683 18.94,-13.8589 7.18,-3.3828 14.97,-5.082 23.39,-5.082 z M 2332.91,66.5 c -11.08,0 -21.19,2.3086 -30.32,6.9219 -9.13,4.6172 -17.04,10.7265 -23.7,18.3164 -6.68,7.5937 -11.86,16.3207 -15.55,26.1717 -3.7,9.852 -5.54,20.012 -5.54,30.481 0,11.078 1.79,21.699 5.39,31.859 3.58,10.148 8.67,19.031 15.23,26.629 6.57,7.582 14.42,13.641 23.55,18.16 9.13,4.512 19.24,6.77 30.32,6.77 13.76,0 25.66,-3.438 35.71,-10.309 10.06,-6.879 18.68,-15.551 25.86,-26.012 v 33.551 h 18.79 V 68.0391 c 0,-11.0782 -2.11,-20.8789 -6.32,-29.3985 -4.2,-8.5195 -9.85,-15.6523 -16.93,-21.4023 C 2382.32,11.5 2374.01,7.19141 2364.47,4.30859 2354.92,1.44141 2344.81,0 2334.14,0 2315.67,0 2300.79,3.28906 2289.51,9.85156 2278.22,16.4219 2269.08,25.25 2262.1,36.3281 l 12.94,10.1602 c 6.35,-10.2578 14.77,-17.7969 25.24,-22.6289 10.47,-4.8203 21.75,-7.2305 33.86,-7.2305 7.8,0 15.19,1.0703 22.17,3.2305 6.97,2.1601 13.08,5.3398 18.31,9.539 5.24,4.211 9.39,9.543 12.47,16.0118 3.08,6.4687 4.62,14.0117 4.62,22.6289 V 99.7383 C 2385.56,89.4805 2377.14,81.3711 2366.47,75.4219 2355.8,69.4688 2344.61,66.5 2332.91,66.5"
         style="fill:#ffffff;fill-opacity:1;fill-rule:nonzero;stroke:none"
         id="path24" /><path
         d="m 2468.98,148.07 c 0,-9.031 1.54,-17.379 4.62,-25.082 3.07,-7.699 7.23,-14.468 12.46,-20.316 5.24,-5.8517 11.4,-10.422 18.47,-13.7032 7.09,-3.2774 14.63,-4.9297 22.63,-4.9297 8.01,0 15.55,1.6992 22.63,5.082 7.08,3.3906 13.28,8.0078 18.63,13.8589 5.33,5.848 9.53,12.668 12.62,20.469 3.07,7.801 4.62,16.211 4.62,25.242 0,8.821 -1.55,17.188 -4.62,25.09 -3.09,7.899 -7.29,14.778 -12.62,20.629 -5.35,5.852 -11.55,10.469 -18.63,13.852 -7.08,3.386 -14.62,5.078 -22.63,5.078 -8,0 -15.49,-1.692 -22.47,-5.078 -6.98,-3.383 -13.14,-8.051 -18.47,-14.012 -5.34,-5.949 -9.55,-12.879 -12.62,-20.77 -3.08,-7.91 -4.62,-16.371 -4.62,-25.41 z m 58.18,-82.488 c -11.69,0 -22.37,2.1993 -32.02,6.6094 -9.64,4.4102 -18,10.4102 -25.09,18.0078 -7.07,7.5899 -12.57,16.4218 -16.47,26.4808 -3.9,10.05 -5.84,20.621 -5.84,31.711 0,11.281 2,21.961 6,32.007 4,10.051 9.54,18.883 16.63,26.481 7.07,7.582 15.44,13.641 25.08,18.16 9.65,4.512 20.22,6.77 31.71,6.77 11.5,0 22.12,-2.258 31.87,-6.77 9.74,-4.519 18.16,-10.578 25.24,-18.16 7.08,-7.598 12.62,-16.43 16.62,-26.481 4.01,-10.046 6.01,-20.726 6.01,-32.007 0,-11.09 -1.96,-21.661 -5.86,-31.711 -3.9,-10.059 -9.38,-18.8909 -16.47,-26.4808 -7.07,-7.5976 -15.49,-13.5976 -25.24,-18.0078 -9.75,-4.4101 -20.47,-6.6094 -32.17,-6.6094"
         style="fill:#ffffff;fill-opacity:1;fill-rule:nonzero;stroke:none"
         id="path26" /><path
         d="m 2638.91,68.6484 v 30.1719 h 18.16 V 68.6484 h -18.16"
         style="fill:#ffffff;fill-opacity:1;fill-rule:nonzero;stroke:none"
         id="path28" /><path
         d="m 2835,68.6484 h -20.93 v 89.5896 c 0,19.082 -2.83,32.934 -8.46,41.551 -5.65,8.621 -14.32,12.941 -26.02,12.941 -6.16,0 -12.31,-1.14 -18.47,-3.39 -6.16,-2.258 -11.85,-5.442 -17.08,-9.551 -5.24,-4.098 -9.91,-8.969 -14.01,-14.617 -4.11,-5.641 -7.08,-11.75 -8.93,-18.313 V 68.6484 h -20.93 V 229.039 h 19.08 v -36.32 c 6.57,11.691 15.96,21.133 28.17,28.32 12.21,7.18 25.5,10.77 39.87,10.77 8.82,0 16.32,-1.637 22.47,-4.93 6.16,-3.277 11.09,-7.899 14.78,-13.848 3.69,-5.949 6.36,-13.242 8,-21.859 1.65,-8.621 2.46,-18.152 2.46,-28.621 V 68.6484"
         style="fill:#ffffff;fill-opacity:1;fill-rule:nonzero;stroke:none"
         id="path30" /><path
         d="m 3008.01,157.309 c -0.62,8.621 -2.62,16.472 -6,23.562 -3.39,7.07 -7.7,13.18 -12.93,18.309 -5.23,5.129 -11.29,9.129 -18.17,12.011 -6.87,2.868 -14.21,4.309 -22,4.309 -7.81,0 -15.19,-1.441 -22.17,-4.309 -6.98,-2.882 -13.08,-6.882 -18.31,-12.011 -5.24,-5.129 -9.45,-11.289 -12.63,-18.469 -3.18,-7.191 -5.08,-14.981 -5.7,-23.402 z m -59.1,-91.727 c -11.71,0 -22.43,2.1993 -32.18,6.6094 -9.74,4.4102 -18.21,10.4688 -25.39,18.168 -7.19,7.6914 -12.78,16.5706 -16.78,26.6206 -4,10.059 -6,20.829 -6,32.329 0,11.281 2,21.902 6,31.863 4,9.949 9.54,18.668 16.63,26.168 7.07,7.488 15.54,13.441 25.39,17.859 9.85,4.403 20.52,6.61 32.02,6.61 11.69,0 22.41,-2.207 32.17,-6.61 9.74,-4.418 18.11,-10.418 25.09,-18.019 6.97,-7.59 12.41,-16.309 16.31,-26.16 3.9,-9.86 5.85,-20.321 5.85,-31.399 0,-1.652 0,-3.293 0,-4.93 0,-1.64 -0.11,-2.769 -0.31,-3.39 h -137.3 c 0.62,-8.61 2.62,-16.571 6.01,-23.852 3.39,-7.289 7.74,-13.597 13.08,-18.9373 5.33,-5.3398 11.44,-9.4922 18.31,-12.4609 6.88,-2.9805 14.22,-4.4688 22.02,-4.4688 5.13,0 10.26,0.7188 15.39,2.1602 5.13,1.4297 9.85,3.3789 14.16,5.8476 4.31,2.461 8.2,5.4805 11.7,9.0821 3.49,3.5901 6.16,7.5391 8.01,11.8481 l 18.15,-4.93 c -2.46,-5.9494 -5.95,-11.34 -10.46,-16.1603 -4.52,-4.8203 -9.75,-9.0313 -15.7,-12.6211 -5.96,-3.5898 -12.52,-6.3594 -19.7,-8.3086 -7.19,-1.9492 -14.68,-2.918 -22.47,-2.918"
         style="fill:#ffffff;fill-opacity:1;fill-rule:nonzero;stroke:none"
         id="path32" /><path
         d="m 3136.07,76.3516 c -1.23,-0.6211 -3.03,-1.4414 -5.39,-2.4727 -2.36,-1.0195 -5.07,-2.0469 -8.15,-3.0703 -3.08,-1.0273 -6.57,-1.957 -10.47,-2.7695 -3.9,-0.8203 -8.01,-1.2305 -12.31,-1.2305 -4.52,0 -8.83,0.6133 -12.93,1.8398 -4.11,1.2305 -7.7,3.1329 -10.78,5.7032 -3.08,2.5586 -5.54,5.789 -7.39,9.6875 -1.84,3.9023 -2.77,8.4218 -2.77,13.5507 V 212.422 h -22.16 v 16.617 h 22.16 v 54.18 h 20.94 v -54.18 h 36.94 v -16.617 h -36.94 V 103.441 c 0.41,-5.9488 2.51,-10.3199 6.31,-13.0816 3.79,-2.7696 8.16,-4.1602 13.08,-4.1602 5.95,0 11.18,0.9727 15.7,2.9219 4.52,1.9492 7.39,3.3398 8.62,4.1602 l 5.54,-16.9297"
         style="fill:#ffffff;fill-opacity:1;fill-rule:nonzero;stroke:none"
         id="path34" /><path
         d="m 871.965,2333 c 5.594,0.26 14.496,1.92 23.25,1.92 8.906,0 19.707,-1.66 24.637,-1.92 -14.348,30.59 -34.954,78.09 -46.938,105.47 -11.344,26.46 -30.309,70.48 -45.348,113.67 -3.488,-1.08 -6.621,-1.57 -10.058,-1.57 -3.746,0 -6.879,0.49 -10.395,1.57 -7.492,-25.87 -25.843,-66.75 -57.636,-137.89 L 712.953,2333 c 4.367,0.72 8.906,1.92 14.145,1.92 5.078,0 11.007,-1.2 15.218,-1.92 5.051,18.02 15.036,44.04 25.172,68.31 12.551,0.72 25.125,1.24 37.727,1.24 13.473,0 26.715,-0.52 40.367,-1.24 l 13.09,-33.36 z m -35.649,87.92 c -9.699,-0.72 -19.218,-1.41 -28.843,-1.41 -10.985,0 -21.762,1.05 -32.825,1.41 l 32.157,77.4 29.511,-77.4"
         style="fill:#4c5c6d;fill-opacity:1;fill-rule:evenodd;stroke:none"
         id="path36" /><path
         d="m 947.449,2476.31 c 0,-53.82 0,-105.84 -3.465,-143.31 6.954,0.26 15.704,1.93 22.684,1.93 7.16,0 14.68,-1.67 22.02,-1.93 -2.516,25.54 -3.129,59.59 -3.129,106.43 0,31.79 0,86.15 3.41,109.55 -7.621,-0.95 -15.399,-1.92 -22.301,-1.92 -4.723,0 -16.426,1.23 -22.379,1.92 3.16,-30.49 3.16,-52.94 3.16,-72.67"
         style="fill:#4c5c6d;fill-opacity:1;fill-rule:nonzero;stroke:none"
         id="path38" /><path
         d="m 1083.05,2531.97 c 4.72,0.33 16.34,1.61 22.3,1.61 10.39,0 20.89,-1.61 29.35,-8.01 10.99,-8.05 13.2,-19.4 13.2,-32.59 0,-20.55 -11.63,-43.6 -43.09,-43.6 -8.22,0 -15.81,0.72 -21.76,1.03 z m 51.65,-92.01 c 28.54,5.42 54.77,23.41 54.77,58.36 0,13.19 -5.06,26.02 -14.5,35.26 -13.55,12.88 -29.03,15.4 -49.38,15.4 -7.34,0 -43.85,-1.57 -51.96,-1.57 -16.09,0 -24.31,0.88 -31.47,1.57 2.18,-40.7 2.18,-45.06 2.18,-86.33 0,-60.62 -0.43,-67.62 -2.77,-129.65 6.88,1.05 14.4,1.92 21.66,1.92 7.83,0 14.76,-1.2 21.02,-1.92 0,8.21 -1.2,48.76 -1.2,58.02 v 44.58 h 7.62 c 16.93,-23.79 36.51,-51.58 52.5,-76.4 4.73,-7.24 11.6,-18.94 16.43,-26.2 9.42,1.31 13.19,1.92 25.51,1.92 11.26,0 19.12,-0.87 27.94,-1.92 -19.91,24.82 -28.3,35.82 -53.22,70.86 -4.7,6.56 -11.63,17.06 -16.4,23.68 l -8.73,12.42"
         style="fill:#4c5c6d;fill-opacity:1;fill-rule:evenodd;stroke:none"
         id="path40" /><path
         d="m 1298.58,2406.73 c -14.68,43.68 -35.21,105.01 -44.98,142.25 -7.86,-1.2 -14.79,-1.92 -22.02,-1.92 -7.62,0 -18.25,1.23 -24.56,1.92 12.83,-34.08 23.86,-64.21 32.44,-88.07 14.5,-40.99 23.91,-69.37 35.28,-103.94 l 7.78,-23.97 c 4.44,1.05 9.52,1.93 12.91,1.93 3.51,0 6.67,-0.62 11.98,-1.93 5.08,16.43 11.04,36.52 15.58,49.45 12.21,35.86 13.7,40.89 29.77,85.62 l 9.44,26.2 c 3.49,-10.11 9.52,-26.2 12.86,-36.24 3.59,-9.88 19.58,-58.02 23.33,-68.6 5.15,-14.32 6.28,-18.32 17.99,-56.43 2.79,0.26 8.82,1.93 13.44,1.93 4.44,0 7.96,-0.88 12.6,-1.93 12.07,37.47 13.37,41.24 30.93,91.57 17.29,49.27 27.95,77.24 46.88,124.41 -4.69,-1.2 -9.41,-1.92 -14.21,-1.92 -5.85,0 -10.91,0.97 -14.42,1.92 -11.27,-40.88 -17.02,-60.79 -26.13,-87.71 -14.76,-44.14 -16.76,-49.2 -25.77,-73.14 -10.03,27.1 -19.83,54.43 -28.89,82.14 -5.08,15.12 -24.41,78.02 -24.69,78.71 -4.36,-0.95 -7.47,-1.92 -13.86,-1.92 -5.59,0 -9.78,1.23 -13.83,1.92 -9.5,-38.44 -42.78,-130.96 -45.94,-139.43 l -7.88,-20.53 -6.03,17.71"
         style="fill:#4c5c6d;fill-opacity:1;fill-rule:nonzero;stroke:none"
         id="path42" /><path
         d="m 1651.84,2333 c 5.67,0.26 14.42,1.92 23.22,1.92 8.83,0 19.94,-1.66 24.56,-1.92 -14.06,30.59 -34.95,78.09 -46.83,105.47 -11.34,26.46 -30.23,70.48 -45.32,113.67 -3.52,-1.08 -6.65,-1.57 -10.06,-1.57 -3.75,0 -7.01,0.49 -10.47,1.57 -7.52,-25.87 -25.72,-66.75 -57.59,-137.89 L 1492.81,2333 c 4.46,0.72 8.82,1.92 14.24,1.92 5.08,0 10.93,-1.2 15.04,-1.92 5.18,18.02 15.22,44.04 25.27,68.31 12.48,0.72 25.16,1.24 37.73,1.24 13.55,0 26.74,-0.52 40.26,-1.24 l 13.3,-33.36 z m -35.54,87.92 c -9.81,-0.72 -19.23,-1.41 -29.03,-1.41 -11.01,0 -21.68,1.05 -32.67,1.41 l 31.98,77.4 29.72,-77.4"
         style="fill:#4c5c6d;fill-opacity:1;fill-rule:evenodd;stroke:none"
         id="path44" /><path
         d="m 1783.96,2417.4 c 0,2.8 2,6.21 4.11,10.14 13.26,22.56 25.4,46.3 39.62,68.96 4.64,7.41 27.72,44.01 32.51,52.5 -3.56,-1.23 -6.98,-1.95 -13.26,-1.95 -6.91,0 -13.3,1 -18.35,1.95 -22.64,-49.81 -27.62,-60.49 -54.33,-106.42 -26.82,46.83 -38.7,71.8 -55.15,106.42 -9.09,-1.59 -18.25,-1.95 -25.84,-1.95 -6.83,0 -14.2,0.72 -25.79,1.95 16.34,-27.43 43.16,-70.96 59.15,-98.6 l 18.6,-32.1 c 0,-19.4 -0.95,-60.74 -1.92,-85.3 5.95,0.72 14.76,1.95 21.15,1.95 7.26,0 14.5,-1.23 21.76,-1.95 -1.31,29.28 -2.26,46.29 -2.26,72.7 v 11.7"
         style="fill:#4c5c6d;fill-opacity:1;fill-rule:nonzero;stroke:none"
         id="path46" /><path
         d="m 1878.31,2380.2 c -1.56,-15.04 -1.85,-19.23 -7.24,-35.5 11.35,-5.74 31.88,-16.06 58.85,-16.06 57.61,0 79.94,36.7 79.94,68.85 0,8.91 -2.16,27.44 -15.35,41.58 -9.11,10.13 -18.6,13.65 -42.83,23.04 -27.69,10.68 -43.78,16.99 -43.78,39.96 0,18.5 12.27,34 37.16,34 19.74,0 36.6,-9.47 41.24,-27.43 h 4.36 c 2.8,11.93 3.49,14.5 9.78,30.03 -15.37,6.82 -29.36,12.75 -52.22,12.75 -56.97,0 -73.42,-35.29 -73.42,-62.9 0,-26.13 9.18,-42.29 39.77,-55.71 8.73,-3.88 23.51,-9.47 32.34,-13.3 6.03,-2.38 25.84,-11.21 25.84,-36.16 0,-22.55 -16.35,-39.36 -41.24,-39.36 -18.61,0 -34.34,4.74 -48.73,36.21 h -4.47"
         style="fill:#4c5c6d;fill-opacity:1;fill-rule:nonzero;stroke:none"
         id="path48" /><path
         d="m 599.719,2475.59 c 28.383,19.94 72.855,44.4 104.859,58.54 L 491.191,2666.4 c 131.239,46.35 213.387,163.39 213.387,322.94 0,226.63 -172.765,323.1 -349.324,323.1 C 164.422,3312.44 0,3206.63 0,2966.71 0,2915.77 11.4453,2819.3 90.6914,2739.08 172.918,2656 270.152,2643.79 352.277,2643.79 c 10.469,0 20.786,0 31.18,0.85 z m -470.324,486.42 c 0,238.05 127.57,302.18 223.933,302.18 154.824,0 221.934,-128.44 221.934,-265.43 0,-78.27 -9.446,-152 -48.219,-211.62 -38.727,-59.41 -102.938,-95.21 -172.844,-95.21 -174.738,0 -224.804,166.17 -224.804,270.08"
         style="fill:#5c1239;fill-opacity:1;fill-rule:evenodd;stroke:none"
         id="path50" /><path
         d="m 1251.93,2656.99 c 16.97,0.87 43.35,5.56 69.81,5.56 26.48,0 59.51,-4.69 73.75,-5.56 -42.55,91.56 -104.93,234.15 -140.86,316.37 -33.95,79.4 -90.57,211.52 -135.91,341.01 -10.42,-2.98 -19.87,-4.9 -30.18,-4.9 -11.35,0 -20.76,1.92 -31.16,4.9 -22.76,-77.6 -77.525,-200.37 -172.837,-413.79 L 774.961,2656.99 c 13.191,1.85 26.383,5.56 42.473,5.56 15.039,0 33.054,-3.71 45.449,-5.56 15.012,53.81 45.246,132.19 75.472,204.94 37.727,1.77 75.505,3.8 113.335,3.8 40.54,0 80.22,-2.03 120.84,-3.8 l 39.73,-100.18 z M 1145.1,2920.5 c -29.18,-1.96 -57.59,-3.86 -86.87,-3.86 -33,0 -65.16,2.8 -98.136,3.86 l 96.286,232.22 88.72,-232.22"
         style="fill:#5c1239;fill-opacity:1;fill-rule:evenodd;stroke:none"
         id="path52" /><path
         d="m 1671.07,3135.76 c 0,36.03 0.87,71.83 1.74,105.83 65.18,0 132.27,-1.07 188.03,-6.75 -2.87,15.22 -4.82,23.77 -4.82,34.08 0,7.52 1.95,19.81 4.82,35.98 -90.69,-4.87 -173.86,-5.75 -252.24,-5.75 -72.7,0 -177.54,0.88 -252.16,5.75 2.9,-11.52 4.72,-23.74 4.72,-35.1 0,-11.19 -1.82,-23.59 -4.72,-34.96 48.24,4.8 138.94,6.75 147.4,6.75 h 47.17 c 0.98,-36.98 1.93,-69.8 1.93,-104.93 l 0.85,-263.36 c 0,-71.8 -5.57,-144.66 -9.42,-216.31 34.08,3.64 48.14,5.57 64.23,5.57 11.34,0 41.65,-2.77 69.01,-5.57 -2.9,26.38 -6.54,57.56 -6.54,129.29 v 349.48"
         style="fill:#5c1239;fill-opacity:1;fill-rule:nonzero;stroke:none"
         id="path54" /><path
         d="m 2303.36,2656.99 c 16.96,0.87 43.42,5.56 69.98,5.56 26.31,0 59.41,-4.69 73.58,-5.56 -42.55,91.56 -104.76,234.15 -140.76,316.37 -33.9,79.4 -90.72,211.52 -135.97,341.01 -10.36,-2.98 -19.91,-4.9 -30.23,-4.9 -11.34,0 -20.71,1.92 -31.25,4.9 -22.64,-77.6 -77.33,-200.37 -172.74,-413.79 l -109.48,-243.59 c 13.09,1.85 26.48,5.56 42.37,5.56 15.22,0 33.05,-3.71 45.45,-5.56 15.11,53.81 45.24,132.19 75.47,204.94 37.75,1.77 75.48,3.8 113.41,3.8 40.65,0 80.19,-2.03 120.85,-3.8 l 39.64,-100.18 z m -106.78,263.51 c -29.18,-1.96 -57.46,-3.86 -86.74,-3.86 -33.19,0 -65.16,2.8 -98.29,3.86 l 96.26,232.22 88.77,-232.22"
         style="fill:#5c1239;fill-opacity:1;fill-rule:evenodd;stroke:none"
         id="path56" /><path
         d="m 2672.41,3253.71 c 14.14,0.97 49.02,4.9 66.93,4.9 31.21,0 62.39,-4.9 87.9,-23.76 33.11,-24.56 39.67,-58.57 39.67,-98.19 0,-61.34 -34.98,-130.37 -129.41,-130.37 -24.54,0 -47.17,1.92 -65.09,2.87 z m 154.83,-275.73 c 85.97,16.1 164.34,69.91 164.34,174.74 0,39.73 -15.11,78.46 -43.42,105.89 -40.52,38.62 -86.94,46.3 -148.35,46.3 -21.69,0 -131.22,-4.88 -155.81,-4.88 -48.14,0 -72.67,2.9 -94.44,4.88 6.65,-121.95 6.65,-135.07 6.65,-258.87 0,-182.33 -0.97,-202.97 -8.49,-389.05 20.71,2.78 43.45,5.57 65.1,5.57 23.61,0 44.48,-3.72 63.34,-5.57 0,24.54 -3.75,146.41 -3.75,173.69 v 134.22 h 22.72 c 50.94,-71.94 109.47,-155.03 157.62,-229.56 14.16,-21.73 34.95,-56.69 49.12,-78.35 28.38,3.65 39.72,5.57 76.52,5.57 33.9,0 57.59,-2.79 84.05,-5.57 -59.59,74.6 -84.99,107.64 -159.52,212.47 -14.24,19.73 -35.06,51.04 -49.2,70.75 l -26.48,37.77"
         style="fill:#5c1239;fill-opacity:1;fill-rule:evenodd;stroke:none"
         id="path58" /><path
         d="m 4247.97,2897.61 c 0.69,-16.43 0.62,-32.52 -0.18,-48.41 -159.09,-6.39 -309.8,-15.91 -309.8,-26.76 0,-10.63 147.41,-20.07 304.56,-26.28 -2.69,-18.17 -6.38,-35.91 -10.65,-53.46 -154.92,-6.24 -298.81,-15.55 -298.81,-26.12 0,-10.14 134.19,-19.25 282.9,-25.69 -6.8,-18.81 -14.57,-37.24 -23.22,-54.89 -127.67,-6.11 -233.12,-14.32 -233.12,-23.33 0,-8.29 92.18,-16.07 208.3,-21.92 -6.39,-10.83 -13.29,-21.04 -20.37,-30.95 -7.52,-10.65 -15.81,-21.4 -24.54,-31.8 -72.55,-5.49 -122.41,-11.8 -122.41,-18.5 0,-5.67 35.72,-11.01 90.77,-15.91 -30.15,-29.72 -65.62,-57.48 -107.37,-81.69 0,0 -49.35,42.37 -89.82,92.01 -36.34,44.14 -113.26,160.6 -131.4,186.62 -18.02,26.05 -29.9,33.64 -51.12,26.12 -28.31,-10.03 -61.41,-15.11 -71.55,-15.11 -10.13,0 -15.73,3.95 1.31,10.75 16.94,6.8 83.94,38.42 117,103.81 37.03,73.63 4.36,175.22 4.36,175.22 -12.34,-54.22 -40.62,-74.57 -40.62,-74.57 9.06,50.4 -0.8,96.18 -25.72,128.31 l -13.96,-63.87 c 0,0 -8.72,0.46 -30.23,-17.55 -21.51,-18.15 -27.36,-44.56 -27.36,-44.56 16.86,-6.8 37.24,10.14 37.24,10.14 -25.94,-97.31 -63.36,-176.49 -90.51,-218.24 -27.08,-42.01 -49.63,-57.77 -76.71,-68.85 -22.99,-9.27 -30.49,1.67 -30.49,1.67 -20.12,17.19 -35.13,33.1 -50.89,52.04 0,0 -1.2,2.21 3.06,2.21 11.13,-0.26 31.13,18.96 35.41,26.89 5.08,9.09 4.54,15.92 2.03,16.43 -2.49,0.46 -6.85,-6.8 -28.33,-20.43 -21.48,-13.48 -31.26,-4.03 -38.45,3.46 -5.51,5.96 -0.15,13.48 3.31,18.2 3.24,4 116.82,215.8 417.31,438.25 393.59,291.45 645.04,370.19 659.44,375.86 9.54,3.69 25.1,8.67 28.59,5.08 3.92,-4 5.87,-7.34 5.23,-12.06 -0.41,-4.7 -2.97,-7.27 -21.22,-15.27 -151.13,-66.6 -327.46,-177.49 -427.68,-242.14 -123.36,-60.1 -240.95,-145.89 -245.23,-147.81 -9.55,-5.96 -2.46,-14.53 3.13,-10.91 208.23,138.48 452.31,232.63 721.95,310.06 12.83,3.67 19.92,3.67 22.1,0.77 2.36,-3.21 3.49,-6.9 3.85,-10.73 0.33,-5 -3.75,-7.52 -14.89,-11.98 -289.61,-107.53 -503.22,-207.51 -640.57,-299.92 0,0 -14.32,-8.58 -14.42,-18.53 0,-3.78 7.69,-4.21 7.69,-4.21 68.76,-1.24 160.58,-5.31 204.26,-7.75 0,0 -6.09,-22.2 -48.05,-40.04 -32.31,-13.78 -62.2,-11.62 -91.82,-11.8 -6.64,0 -12.14,-6.62 -6.9,-13.7 2.62,-3.42 65.62,-104.92 294.61,-128.16"
         style="fill:#5c1239;fill-opacity:1;fill-rule:nonzero;stroke:none"
         id="path60" /><path
         d="m 2958.48,2499.9 v -132.81 h -49.71 v 120.57 c 0,0 -10.14,-3.83 -24.15,-9.96 -13.79,-6.29 -63.96,-26.56 -63.96,-54.1 v -31.87 h 51.12 v -24.64 h -121 c 0.08,5.75 0.18,14.32 0.18,26.97 0,39.6 -33.72,61.08 -63.77,61.08 h -139.71 c -24.53,0 -36.34,-5.95 -43.01,-12.57 v 102.24 c 0,0 -21.74,-15.4 -37.83,-27.54 -15.99,-12.14 0,-20.35 0,-20.35 v -129.83 h -45.83 l -1,111.38 c 0,0 -31.88,-23.33 -41.06,-30.49 -8.88,-6.98 -3.93,-13.29 6.13,-13.29 0,0 -1.85,-82.2 -1.85,-101.68 0,-19.58 -16.14,-41.75 -50.22,-31.72 0,0 -10.68,-2.02 -1.67,-10.03 8.91,-8.24 19.69,-14.32 31.72,-14.32 11.96,0 56.02,8.18 56.02,56.07 h 576.52 v 207.74 c 0,0 -34.05,-22.35 -40.88,-28.46 -7.08,-6.13 -5.05,-13.37 3.96,-12.39 m -244.39,-108.97 c 0,-6.03 -0.26,-15.98 -0.52,-23.84 h -209.1 v 36.68 c 5.52,14.16 14.78,15.75 29.02,15.75 h 152.73 c 32.95,0 27.87,-17.3 27.87,-28.59 m 157.69,27.51 h -23.91 c 0,13.2 23.91,20.46 23.91,20.46 z m 148.62,93.67 c -6.98,-6.03 -4.95,-13.37 3.93,-12.39 v -166.89 h 37.05 v 207.87 c 0,0 -34.13,-22.55 -40.98,-28.59 m -137.76,4.19 c 13.01,0 21.92,5 21.92,15.22 0,10.24 -5.93,17.47 -21.92,17.47 -13.99,0 -17.84,-6.21 -17.84,-17.47 0,-11.35 4.83,-15.22 17.84,-15.22 m -49.81,0 c 12.83,0 22.02,5 22.02,15.22 0,10.24 -5.93,17.47 -22.02,17.47 -14.07,0 -17.84,-6.21 -17.84,-17.47 0,-11.35 5.08,-15.22 17.84,-15.22 m -562.66,-196.58 c -14.07,0 -17.92,-6.13 -17.92,-17.38 0,-11.08 5.08,-15.29 17.92,-15.29 13.01,0 21.91,5.06 21.91,15.29 0,10.22 -5.93,17.38 -21.91,17.38 m -49.89,0 c -14.07,0 -17.94,-6.13 -17.94,-17.38 0,-11.08 4.9,-15.29 17.94,-15.29 12.83,0 21.91,5.06 21.91,15.29 0,10.22 -5.95,17.38 -21.91,17.38 m -72.78,193.6 c 13.09,0 21.73,5.08 21.73,15.22 0,10.31 -5.92,17.48 -21.73,17.48 -14.14,0 -17.94,-6.14 -17.94,-17.48 0,-11.27 4.9,-15.22 17.94,-15.22 m -48.07,0 c 12.93,0 22.02,5.08 22.02,15.22 0,10.31 -6.11,17.48 -22.02,17.48 -14.14,0 -17.91,-6.14 -17.91,-17.48 0,-11.27 4.9,-15.22 17.91,-15.22 m 233.2,-56.87 c 0,0 -23.61,-13.52 -38.44,-26.82 -14.94,-13.08 2.95,-18.17 2.95,-18.17 v -44.37 h -112.59 v 155.34 c 0,0 -41.16,-37.75 -44.93,-42.83 -3.93,-5.24 9.8,-10.14 9.8,-10.14 l -2.28,-14.73 c 0,0 -16.4,-8.49 -36.26,-21.94 -19.74,-13.27 -34.42,-30.26 -34.42,-41.86 0,-11.72 -4.9,-57.92 -4.9,-57.92 h 261.07 z m -184.18,-89.36 h -38.7 c 0,0 -5.42,23.84 8.75,32.93 14.14,9.37 29.95,16.53 29.95,16.53 v -49.46"
         style="fill:#5c1239;fill-opacity:1;fill-rule:nonzero;stroke:none"
         id="path62" /><path
         d="m 4239.15,2976.24 c 0,-6.13 -85.61,-11.7 -207.62,-16.61 -21.55,12.25 -37.82,24.46 -49.86,35.11 148,-5.21 257.48,-11.7 257.48,-18.5"
         style="fill:#71808e;fill-opacity:1;fill-rule:nonzero;stroke:none"
         id="path64" /><path
         d="m 4151.42,3182.24 c 0,-5.06 -71.65,-9.78 -174.12,-13.88 14.6,8.46 29.87,17.21 45.6,25.76 77.5,-3.46 128.52,-7.67 128.52,-11.88"
         style="fill:#71808e;fill-opacity:1;fill-rule:nonzero;stroke:none"
         id="path66" /><path
         d="m 3388.17,2739 c -47.48,-0.51 -89.05,-0.77 -121.54,-0.77 -46.76,0 -84.67,14.32 -84.67,32.23 0,17.76 37.91,32.26 84.67,32.26 41.42,0 97.49,-0.54 161.8,-1.41 -24.81,-35.83 -36.8,-57.41 -37.83,-58.72 -0.69,-1.02 -1.56,-2.25 -2.43,-3.59"
         style="fill:#71808e;fill-opacity:1;fill-rule:nonzero;stroke:none"
         id="path68" /><path
         d="m 3413.57,2695.85 c 15.75,-18.96 30.74,-34.85 50.89,-52.07 0,0 7.46,-10.93 30.48,-1.64 23.31,9.57 43.07,22.45 65.52,52.5 65.26,-0.94 134.35,-2.53 202.43,-4.1 5.6,-8.16 16.94,-25.1 31,-45.89 -189.75,-4.87 -395.77,-7.85 -501.32,-7.85 -43.94,0 -79.59,13.7 -79.59,30.23 0,16.84 35.65,30.49 79.59,30.49 32.13,0 73.47,-0.26 120.84,-0.72 0,-0.49 0.16,-0.95 0.16,-0.95"
         style="fill:#71808e;fill-opacity:1;fill-rule:nonzero;stroke:none"
         id="path70" /><path
         d="m 3340.2,2537.46 c -39.06,0 -70.6,12.06 -70.6,26.9 0,14.85 31.54,26.91 70.6,26.91 103.19,0 314.8,-3.15 495.98,-8.36 8.73,-12.42 17.48,-24.82 25.69,-36.34 -186.52,-5.44 -413.51,-9.11 -521.67,-9.11"
         style="fill:#71808e;fill-opacity:1;fill-rule:nonzero;stroke:none"
         id="path72" /><path
         d="m 3942.01,2451.49 c -152.21,-6.75 -413.8,-11.21 -522.5,-11.21 -30.67,0 -55.56,9.62 -55.56,21.17 0,11.7 24.89,21.12 55.56,21.12 103.98,0 348.11,-4.1 502.32,-10.32 6.88,-7.49 13.68,-14.32 20.18,-20.76"
         style="fill:#71808e;fill-opacity:1;fill-rule:nonzero;stroke:none"
         id="path74" /><path
         d="m 3545.07,2394.34 c 89.67,0 363.03,-6.73 363.03,-14.94 0,-8.29 -273.36,-14.96 -363.03,-14.96 -17.55,0 -31.72,6.67 -31.72,14.96 0,8.21 14.17,14.94 31.72,14.94"
         style="fill:#71808e;fill-opacity:1;fill-rule:nonzero;stroke:none"
         id="path76" /><path
         d="m 3546.05,2946.97 c -112.99,-1.85 -214.31,-3.06 -279.44,-3.06 -46.74,0 -84.67,14.5 -84.67,32.34 0,17.81 37.93,32.23 84.67,32.23 75.65,0 200.09,-1.49 334.82,-3.95 -19.94,-19.74 -38.44,-39.14 -55.38,-57.56"
         style="fill:#71808e;fill-opacity:1;fill-rule:nonzero;stroke:none"
         id="path78" /><path
         d="m 4100.13,3091.13 c 66.34,-3.6 107.89,-7.52 107.89,-11.63 0,-4.54 -50.38,-8.83 -128.34,-12.75 16.63,12.57 20.3,23.58 20.45,24.38"
         style="fill:#71808e;fill-opacity:1;fill-rule:nonzero;stroke:none"
         id="path80" /><path
         d="m 3292.56,3049.11 c -43.93,0 -79.58,13.59 -79.58,30.41 0,16.75 35.65,30.3 79.58,30.3 90.29,0 253.81,-2.18 418,-5.85 -20.12,-16.94 -39.24,-33.74 -57.23,-50.15 -144.07,-2.97 -280.98,-4.71 -360.77,-4.71"
         style="fill:#71808e;fill-opacity:1;fill-rule:nonzero;stroke:none"
         id="path82" /><path
         d="m 3783.16,3162.15 c -167.83,-4.18 -349.73,-6.72 -442.97,-6.72 -39.03,0 -70.6,11.98 -70.6,26.82 0,14.86 31.57,26.92 70.6,26.92 102.91,0 313.99,-3.24 494.94,-8.4 -8.98,-6.46 -18.07,-13.01 -27.26,-19.93 -8.36,-6.19 -16.68,-12.4 -24.71,-18.69"
         style="fill:#71808e;fill-opacity:1;fill-rule:nonzero;stroke:none"
         id="path84" /><path
         d="m 3419.51,3264.11 c -30.66,0 -55.58,9.44 -55.58,21.07 0,11.7 24.92,21.12 55.58,21.12 115.33,0 403.25,-5.06 549.37,-12.4 -9.24,-5.92 -18.5,-12.42 -28,-18.76 -152.31,-6.57 -412.94,-11.03 -521.37,-11.03"
         style="fill:#71808e;fill-opacity:1;fill-rule:nonzero;stroke:none"
         id="path86" /><path
         d="m 3257.88,2840.46 c -47.61,0 -86.25,14.86 -86.25,32.84 0,18.18 38.64,32.85 86.25,32.85 59.59,0 148.87,-0.87 249.88,-2.46 -19.04,-22.35 -35.47,-42.96 -49.61,-61.49 -80.3,-1.05 -150.64,-1.74 -200.27,-1.74"
         style="fill:#71808e;fill-opacity:1;fill-rule:nonzero;stroke:none"
         id="path88" /><path
         d="m 3513.36,3367.29 c 0,8.24 14.14,14.86 31.72,14.86 89.64,0 363,-6.62 363,-14.86 0,-8.29 -273.36,-15.02 -363,-15.02 -17.58,0 -31.72,6.73 -31.72,15.02"
         style="fill:#71808e;fill-opacity:1;fill-rule:nonzero;stroke:none"
         id="path90" /></g></g></svg>
